HIERARCHY
ROOT Hips
{
	OFFSET 0.000000 0.000000 0.000000 
	CHANNELS 6 Xposition Yposition Zposition Zrotation Yrotation Xrotation
	JOINT LeftUpLeg
	{
		OFFSET 1.363060 -1.794630 0.839290 
		CHANNELS 3 Zrotation Yrotation Xrotation
		JOINT LeftLeg
		{
			OFFSET 2.448110 -6.726130 0.000000 
			CHANNELS 3 Zrotation Yrotation Xrotation
			JOINT LeftFoot
			{
				OFFSET 2.562200 -7.039590 0.000000 
				CHANNELS 3 Zrotation Yrotation Xrotation
				JOINT LeftToeBase
				{
					OFFSET 0.157640 -0.433110 2.322550 
					CHANNELS 3 Zrotation Yrotation Xrotation
					End Site
					{
						OFFSET 0.000000 0.000000 0.000000 
					}
				}
			}
		}
	}
	JOINT RightUpLeg
	{
		OFFSET -1.305520 -1.794630 0.839290 
		CHANNELS 3 Zrotation Yrotation Xrotation
		JOINT RightLeg
		{
			OFFSET -2.542530 -6.985550 0.000000 
			CHANNELS 3 Zrotation Yrotation Xrotation
			JOINT RightFoot
			{
				OFFSET -2.568260 -7.056230 0.000000 
				CHANNELS 3 Zrotation Yrotation Xrotation
				JOINT RightToeBase
				{
					OFFSET -0.164730 -0.452590 2.363150 
					CHANNELS 3 Zrotation Yrotation Xrotation
					End Site
					{
						OFFSET 0.000000 0.000000 0.000000 
					}
				}
			}
		}
	}
	JOINT Spine
	{
		OFFSET 0.028270 2.035590 -0.193380 
		CHANNELS 3 Zrotation Yrotation Xrotation
		JOINT Spine1
		{
			OFFSET 0.056720 2.048850 -0.042750 
			CHANNELS 3 Zrotation Yrotation Xrotation
			JOINT Neck1
			{
				OFFSET -0.054170 1.746240 0.172020 
				CHANNELS 3 Zrotation Yrotation Xrotation
				JOINT Head
				{
					OFFSET 0.104070 1.761360 -0.123970 
					CHANNELS 3 Zrotation Yrotation Xrotation
					End Site
					{
						OFFSET 0.000000 0.000000 0.000000 
					}
				}
			}
			JOINT LeftArm
			{
				OFFSET 3.362410 1.200890 -0.311210 
				CHANNELS 3 Zrotation Yrotation Xrotation
				JOINT LeftForeArm
				{
					OFFSET 4.983000 -0.000000 -0.000000 
					CHANNELS 3 Zrotation Yrotation Xrotation
					JOINT LeftHand
					{
						OFFSET 3.483560 -0.000000 -0.000000 
						CHANNELS 3 Zrotation Yrotation Xrotation
						JOINT LeftHandIndex1
						{
							OFFSET 0.715260 -0.000000 -0.000000 
							CHANNELS 3 Zrotation Yrotation Xrotation
							End Site
							{
								OFFSET 0.000000 0.000000 0.000000 
							}
						}
					}
				}
			}
			JOINT RightArm
			{
				OFFSET -3.136600 1.374050 -0.404650 
				CHANNELS 3 Zrotation Yrotation Xrotation
				JOINT RightForeArm
				{
					OFFSET -5.241900 -0.000000 -0.000000 
					CHANNELS 3 Zrotation Yrotation Xrotation
					JOINT RightHand
					{
						OFFSET -3.444170 -0.000000 -0.000000 
						CHANNELS 3 Zrotation Yrotation Xrotation
						JOINT RightHandIndex1
						{
							OFFSET -0.622530 -0.000000 -0.000000 
							CHANNELS 3 Zrotation Yrotation Xrotation
							End Site
							{
								OFFSET 0.000000 0.000000 0.000000 
							}
						}
					}
				}
			}
		}
	}
}
MOTION
Frames: 10
Frame Time: 0.041667
3.283440 17.790514 8.420764 -0.552192 33.750574 6.956522 -11.570185 -9.301620 -26.391630 0.874054 9.620743 27.995215 1.041129 -7.752884 5.295697 0.043900 -1.351700 -3.717000 15.382843 -1.865752 -29.689634 -3.607038 -12.036950 36.583318 0.802954 -5.428221 -3.444956 -0.009200 -0.619900 1.703400 1.777686 4.841131 5.267733 -1.687076 2.400854 -4.234764 10.074841 -13.862131 8.164091 4.363300 -6.325000 10.579000 -81.998874 -4.685818 66.239058 45.032449 -47.489746 -26.063816 -0.809523 -2.022616 5.954800 -7.125000 0.000000 0.000000 70.672032 22.405831 49.779657 -30.214730 39.542874 -11.791356 0.936981 -0.216722 17.444081 7.125000 0.000000 0.000000 
3.312867 17.800858 8.464150 -0.604990 33.659212 6.358276 -11.603786 -9.191679 -25.531788 0.842728 9.548456 27.829971 1.035291 -7.607131 5.065685 0.059900 -1.578900 -4.343400 15.390245 -2.034829 -28.682900 -3.523249 -11.926453 36.209113 0.811130 -5.461436 -3.488156 -0.005100 -0.461900 1.269100 1.734599 4.767927 5.079007 -1.634429 2.355895 -4.335477 10.233720 -13.865704 8.278446 4.442400 -6.315100 10.643500 -82.049654 -4.326103 65.877583 45.123037 -47.534107 -26.127181 -0.791952 -2.057460 5.116036 -7.125000 0.000000 0.000000 70.756332 21.445903 50.215670 -31.044070 40.253830 -12.367651 0.929444 -0.204710 16.756228 7.125000 0.000000 0.000000 
3.336770 17.809094 8.511856 -0.749676 33.468311 5.679085 -11.531871 -9.009155 -24.672188 0.812563 9.479676 27.666403 1.024753 -7.389434 4.874918 0.073100 -1.744500 -4.800000 15.496898 -2.064663 -27.597251 -3.437961 -11.812427 35.830062 0.831307 -5.549070 -3.581468 -0.002700 -0.335200 0.921000 1.714600 4.741518 4.897580 -1.530767 2.329762 -4.473521 10.454952 -13.888715 8.360086 4.540400 -6.309400 10.694100 -82.062817 -3.997446 65.521552 45.356473 -47.646488 -26.314650 -0.770801 -2.094223 4.178075 -7.125000 0.000000 0.000000 70.854225 20.467145 50.635085 -31.972431 41.024907 -13.025315 0.913076 -0.195038 16.057514 7.125000 0.000000 0.000000 
3.362882 17.820041 8.558557 -0.983802 33.325031 4.947161 -11.396744 -8.848332 -23.797172 0.783890 9.411816 27.501935 1.024196 -7.249185 4.609987 0.107200 -2.111500 -5.813800 15.678424 -2.091991 -26.504400 -3.351277 -11.695743 35.444223 0.854081 -5.648978 -3.694595 -0.001800 -0.273100 0.750400 1.703013 4.676694 4.761985 -1.473124 2.289374 -4.503860 10.555319 -13.889037 8.577539 4.576800 -6.289400 10.810200 -82.127999 -3.820173 65.072215 45.483387 -47.708674 -26.413883 -0.734216 -2.131324 3.307101 -7.125000 0.000000 0.000000 70.990828 19.534519 50.899409 -33.016701 41.856995 -13.772901 0.901844 -0.176026 15.677886 7.125000 0.000000 0.000000 
3.390501 17.832997 8.602848 -1.087058 33.153861 4.337766 -11.369109 -8.763310 -22.928918 0.752987 9.341623 27.331693 1.006085 -6.990623 4.328762 0.108600 -2.124500 -5.849800 15.727058 -2.122168 -25.472270 -3.261628 -11.576363 35.039937 0.874596 -5.740049 -3.797447 -0.000900 -0.195800 0.537900 1.662967 4.602377 4.641037 -1.413798 2.247311 -4.481014 10.612615 -13.839473 8.766702 4.591900 -6.244900 10.910100 -82.112884 -3.722935 64.661493 45.582227 -47.761098 -26.487871 -0.690784 -2.170857 2.307731 -7.125000 0.000000 0.000000 71.228569 18.691857 50.950819 -33.978675 42.593569 -14.466037 0.897984 -0.165435 15.610788 7.125000 0.000000 0.000000 
3.418421 17.844245 8.647540 -1.205365 32.996815 3.796136 -11.307330 -8.701074 -22.132412 0.718335 9.266554 27.140382 0.985711 -6.725210 4.117315 0.087100 -1.903800 -5.239800 15.793169 -2.164932 -24.556493 -3.175579 -11.459589 34.647334 0.879230 -5.759394 -3.845312 -0.001200 -0.228200 0.627100 1.646104 4.522284 4.494417 -1.301467 2.200135 -4.481196 10.646442 -13.745834 8.892740 4.615900 -6.191600 10.961000 -82.158876 -3.505864 64.198241 45.852788 -47.895200 -26.721186 -0.627631 -2.210121 1.347438 -7.125000 0.000000 0.000000 71.413001 17.862346 51.110651 -34.906312 43.281997 -15.144487 0.890990 -0.164307 15.345067 7.125000 0.000000 0.000000 
3.446442 17.854389 8.693538 -1.335737 32.838873 3.253697 -11.242627 -8.626171 -21.354144 0.687540 9.197447 26.965945 0.968341 -6.497705 3.907582 0.092500 -1.961400 -5.398900 15.864235 -2.168921 -23.640642 -3.094404 -11.347595 34.272740 0.888250 -5.796014 -3.868929 -0.003000 -0.351200 0.964900 1.637545 4.444248 4.348743 -1.191809 2.154763 -4.468782 10.643617 -13.644871 9.047978 4.628600 -6.139500 11.012200 -82.195360 -3.223521 63.781734 46.247472 -48.083348 -27.057965 -0.590317 -2.245095 0.220151 -7.125000 0.000000 0.000000 71.524138 17.049745 51.317072 -35.791747 43.919937 -15.800341 0.882626 -0.169141 15.158233 7.125000 0.000000 0.000000 
3.475266 17.862926 8.738733 -1.506018 32.615775 2.732251 -11.143513 -8.525578 -20.630508 0.662939 9.139500 26.820570 0.951988 -6.283372 3.717283 0.118400 -2.218000 -6.108500 15.986628 -2.140149 -22.778038 -3.017966 -11.240334 33.918358 0.897238 -5.832799 -3.900933 -0.004100 -0.413300 1.135700 1.625241 4.414631 4.176612 -1.150985 2.131779 -4.503068 10.727835 -13.632059 9.285600 4.683000 -6.124200 11.127900 -82.264709 -2.919339 63.378189 46.458874 -48.176215 -27.212159 -0.607407 -2.283835 -0.925317 -7.125000 0.000000 0.000000 71.570749 16.189427 51.445125 -36.806133 44.622309 -16.559966 0.872943 -0.168242 14.975639 7.125000 0.000000 0.000000 
3.500073 17.868650 8.778805 -1.616627 32.397097 2.252553 -11.085629 -8.451030 -19.951024 0.642003 9.087989 26.695634 0.930041 -6.053297 3.569929 0.141800 -2.427200 -6.688000 16.054294 -2.083579 -21.948984 -2.946563 -11.139085 33.584457 0.899462 -5.841368 -3.939573 -0.008900 -0.608000 1.670800 1.552832 4.363345 3.958275 -1.258767 2.101268 -4.680666 10.771943 -13.610352 9.507179 4.702600 -6.101000 11.222500 -82.286452 -2.681652 62.873657 46.521117 -48.205197 -27.255388 -0.580263 -2.303937 -2.171984 -7.125000 0.000000 0.000000 71.738756 15.272263 51.684854 -37.948836 45.376164 -17.421273 0.867444 -0.167743 14.591559 7.125000 0.000000 0.000000 
3.526487 17.873572 8.818275 -1.753512 32.263931 1.736033 -11.029383 -8.356380 -19.273998 0.622943 9.038055 26.576062 0.922220 -5.936803 3.382576 0.168500 -2.644400 -7.290200 16.149989 -2.131351 -21.125414 -2.883792 -11.047017 33.285561 0.900089 -5.845682 -4.000227 -0.012700 -0.727000 1.997800 1.466146 4.181371 3.721145 -1.396804 2.007273 -4.913066 10.887897 -13.449873 9.726709 4.777800 -6.010300 11.290100 -82.172876 -2.316179 62.287122 46.810346 -48.346321 -27.506263 -0.508181 -2.330390 -3.603881 -7.125000 0.000000 0.000000 71.974975 14.400885 52.515826 -39.137648 46.116557 -18.322903 0.878107 -0.150486 12.970373 7.125000 0.000000 0.000000 
